<svg width="92" height="66" viewBox="0 0 92 66" fill="none" xmlns="http://www.w3.org/2000/svg">
<g clip-path="url(#clip0_615_575)">
<path d="M50.8106 28.5214H49.6993C48.3242 28.5214 46.9491 28.5214 45.574 28.5214C44.6215 28.5214 44.029 27.9227 44.0302 26.9688C44.0302 25.8438 43.9427 24.7075 44.0752 23.5937C44.3252 21.4773 46.1041 20.0022 48.2579 20.001C53.9924 19.996 59.7269 19.996 65.4614 20.001C70.1491 20.001 74.8369 20.001 79.5246 20.001C81.6498 20.001 83.3149 21.3535 83.7211 23.4212C83.7786 23.7933 83.7999 24.17 83.7849 24.5462C83.7849 31.765 83.7828 38.9837 83.7786 46.2024C83.7786 46.6275 83.8799 46.77 84.3237 46.8412C88.1401 47.4587 91.2803 50.7464 91.7528 54.5704C92.3779 59.5894 89.1865 63.9459 84.1999 64.8635C82.3686 65.1997 80.5997 64.9147 78.8959 64.1672C78.6142 64.0439 78.3107 63.9784 78.0033 63.9747C69.5187 63.9647 61.034 63.9672 52.5494 63.9822C51.4243 63.9822 50.7993 63.2721 50.7993 62.2221C50.8151 51.2214 50.8185 40.2208 50.8093 29.2202L50.8106 28.5214ZM75.7757 49.8064H56.3996C56.2434 49.813 56.0868 49.8105 55.9309 49.7989C55.7425 49.7801 55.5688 49.689 55.4463 49.5446C55.3239 49.4003 55.2623 49.214 55.2746 49.0251C55.277 48.8439 55.3475 48.6702 55.4721 48.5387C55.5967 48.4071 55.7663 48.3273 55.9471 48.315C56.0871 48.3013 56.2284 48.315 56.3684 48.315C63.2588 48.315 70.1487 48.3117 77.0383 48.305C77.3133 48.305 77.597 48.18 77.8621 48.0713C78.8134 47.6963 79.7459 47.2637 80.711 46.9275C81.1972 46.7575 81.7398 46.7449 82.2773 46.6574C82.2773 46.4712 82.2773 46.2999 82.2773 46.1299C82.2773 38.927 82.2773 31.7245 82.2773 24.5225C82.2773 22.5711 81.2222 21.5223 79.2659 21.5223H51.3631C52.4969 22.8499 52.3482 24.3575 52.3482 25.8338C52.3482 37.8345 52.3482 49.8351 52.3482 61.8358V62.4421H76.3495C75.0932 61.223 74.2059 59.6746 73.7893 57.9743C73.7527 57.8594 73.6821 57.7583 73.5868 57.6843C73.2606 57.4193 72.9205 57.173 72.5868 56.913C72.163 56.5805 71.8367 56.5468 71.3942 56.8568C71.0879 57.0693 70.8204 57.338 70.5267 57.5681C69.9391 58.0281 69.3903 58.5681 68.7428 58.9181C67.2765 59.7207 65.8877 59.1444 65.3514 57.5681C65.1514 56.9805 65.0426 56.3617 64.8638 55.7655C64.6488 55.0504 64.2388 54.8504 63.5438 55.1317C63.2896 55.2477 63.0554 55.4034 62.85 55.593C62.5062 55.8867 62.195 56.218 61.8499 56.518C60.7824 57.4518 59.4985 57.7681 58.121 57.7756C57.5834 57.7756 57.2534 57.4006 57.3284 56.9005C57.4009 56.4267 57.7335 56.2592 58.1685 56.2592C59.4348 56.2592 60.5149 55.8417 61.3849 54.8967C61.6576 54.5958 61.9614 54.3247 62.2912 54.0879C64.0101 52.8765 65.7977 53.5078 66.3777 55.5142C66.4077 55.6192 66.4327 55.7254 66.4602 55.8305C66.5764 56.283 66.6827 56.738 66.8127 57.1868C66.9377 57.6143 67.2477 57.8281 67.6678 57.6868C68.0357 57.5678 68.3807 57.3868 68.6878 57.1518C69.2178 56.7418 69.6654 56.2167 70.2191 55.848C70.6979 55.5279 71.2617 55.2104 71.813 55.1604C72.3643 55.1104 72.9593 55.3904 73.5268 55.5242C73.9218 52.669 74.1306 52.124 75.7744 49.8064H75.7757ZM82.7186 48.2063C78.5021 48.2063 75.0644 51.6102 75.0582 55.8017C75.0519 60.0232 78.4934 63.4796 82.6998 63.4784C84.7082 63.4553 86.6267 62.6419 88.0396 61.2143C89.4525 59.7868 90.2462 57.8601 90.2486 55.8516C90.2511 53.8431 89.4622 51.9144 88.0528 50.4834C86.6434 49.0525 84.7269 48.2343 82.7186 48.2063ZM45.6015 26.9751H50.7831C50.7943 26.8588 50.8068 26.7813 50.8068 26.7038C50.8068 25.7988 50.8268 24.8937 50.7918 23.9899C50.7393 22.6536 49.7018 21.6386 48.3167 21.5223C47.0666 21.4173 45.7791 22.3361 45.6278 23.6224C45.4978 24.7237 45.6003 25.8513 45.6003 26.9751H45.6015Z" fill="#2BA75D"/>
<path d="M67.3225 38.8623H78.1982C78.9644 38.8623 79.367 39.1373 79.3557 39.6473C79.3445 40.1574 78.9619 40.3974 78.2181 40.3974C70.9377 40.3974 63.6573 40.3974 56.3769 40.3974C56.1903 40.4027 56.0038 40.3842 55.8219 40.3424C55.668 40.2997 55.5322 40.2082 55.4347 40.0817C55.3373 39.9552 55.2835 39.8005 55.2815 39.6408C55.2796 39.4811 55.3295 39.3251 55.4238 39.1962C55.518 39.0673 55.6516 38.9725 55.8044 38.926C56.0005 38.877 56.2024 38.8556 56.4044 38.8623C60.043 38.8606 63.6823 38.8606 67.3225 38.8623Z" fill="#2BA75D"/>
<path d="M67.34 43.5938H78.2156C78.9794 43.5938 79.3407 43.8313 79.3557 44.3313C79.3707 44.8314 78.9657 45.1114 78.1994 45.1114H56.4032C55.6331 45.1114 55.2881 44.8814 55.2781 44.3613C55.2681 43.8201 55.6032 43.5926 56.4195 43.5926H67.34V43.5938Z" fill="#2BA75D"/>
<path d="M71.3115 26.2666C68.9839 26.2666 66.6562 26.2666 64.3286 26.2666C64.1273 26.2728 63.9266 26.2406 63.7373 26.1716C63.4111 26.0353 63.2885 25.7503 63.3298 25.4065C63.3397 25.249 63.4048 25.1001 63.5136 24.9857C63.6224 24.8714 63.768 24.7991 63.9248 24.7815C64.0951 24.7588 64.267 24.7505 64.4386 24.7565H78.2181C78.9819 24.7565 79.3432 24.9953 79.3582 25.4953C79.3732 25.9953 78.9694 26.2741 78.2019 26.2741L71.3115 26.2666Z" fill="#2BA75D"/>
<path d="M71.3115 29.4655C73.7017 29.4655 76.0918 29.453 78.4819 29.483C78.6281 29.4947 78.7702 29.5367 78.8993 29.6062C79.0285 29.6757 79.1417 29.7712 79.232 29.8868C79.347 30.0568 79.292 30.4406 79.1695 30.6456C79.0682 30.8156 78.7594 30.9481 78.5444 30.9494C73.7333 30.966 68.9218 30.9694 64.1099 30.9594C63.6298 30.9594 63.3236 30.6568 63.3198 30.2218C63.3198 29.7655 63.6261 29.4718 64.1399 29.4718C66.5275 29.4651 68.9181 29.463 71.3115 29.4655Z" fill="#2BA75D"/>
<path d="M71.3203 35.6784C69.0235 35.6784 66.7271 35.6784 64.4311 35.6784C64.2286 35.6923 64.0252 35.6763 63.8273 35.6309C63.6664 35.5883 63.5263 35.4889 63.433 35.351C63.3397 35.2131 63.2995 35.0461 63.3198 34.8808C63.3373 34.5058 63.5586 34.277 63.9086 34.187C64.0625 34.16 64.2191 34.152 64.3749 34.1633H78.2944C78.3569 34.1633 78.4194 34.1633 78.4819 34.1633C79.002 34.1783 79.367 34.5045 79.357 34.9421C79.347 35.3796 79.0169 35.6734 78.4944 35.6746C76.1043 35.6821 73.7142 35.6746 71.324 35.6746L71.3203 35.6784Z" fill="#2BA75D"/>
<path d="M81.7259 55.2182C81.8119 55.0509 81.9145 54.8926 82.0321 54.7457C82.8609 53.8956 83.6847 53.0393 84.541 52.2168C84.9205 51.8575 85.4249 51.6601 85.9474 51.6664C86.4699 51.6727 86.9695 51.8822 87.3401 52.2506C87.7108 52.619 87.9234 53.1172 87.9329 53.6397C87.9425 54.1622 87.7481 54.6678 87.3912 55.0494C85.9677 56.5195 84.5281 57.9742 83.0722 59.4134C82.2334 60.241 81.0633 60.226 80.2133 59.4134C79.5107 58.7467 78.8161 58.0717 78.1294 57.3883C77.2544 56.5133 77.2143 55.287 78.0244 54.4619C78.8344 53.6369 80.0483 53.6369 80.9458 54.5082C81.1447 54.7277 81.3281 54.9607 81.4946 55.2057L81.7259 55.2182ZM86.4936 53.6256C86.3549 53.4706 86.2436 53.2368 86.1186 53.2331C85.8832 53.2201 85.6512 53.2934 85.4661 53.4393C84.3822 54.4957 83.3297 55.5832 82.2596 56.6533C81.8271 57.0858 81.4421 57.0871 81.0008 56.672C80.6483 56.3387 80.3012 56.002 79.9595 55.662C79.7095 55.4057 79.417 55.227 79.1144 55.537C78.8119 55.847 78.9895 56.1295 79.252 56.382C79.8933 56.9971 80.527 57.6221 81.1683 58.2384C81.5246 58.5809 81.7508 58.5946 82.0871 58.2571C83.4639 56.8762 84.8352 55.4899 86.2011 54.0981C86.3147 53.9511 86.4127 53.7928 86.4936 53.6256Z" fill="#2BA75D"/>
<path d="M55.5469 30.4168V30.0043H55.0069C54.7668 30.0043 54.6968 29.9331 54.6956 29.6893C54.6956 29.553 54.6956 29.4155 54.6956 29.2793C54.6908 29.246 54.6937 29.212 54.704 29.18C54.7144 29.148 54.732 29.1188 54.7554 29.0947C54.7788 29.0705 54.8075 29.0521 54.8392 29.0408C54.8708 29.0294 54.9047 29.0255 54.9381 29.0293C55.1531 29.0293 55.3681 29.023 55.5819 29.0293C55.6027 29.0332 55.6241 29.0328 55.6448 29.0282C55.6655 29.0236 55.685 29.0148 55.7022 29.0024C55.7194 28.99 55.7339 28.9743 55.7448 28.9561C55.7557 28.938 55.7628 28.9177 55.7656 28.8967C56.0269 28.0942 56.4907 27.4417 57.232 27.0154C57.9139 26.6352 58.6972 26.4766 59.4734 26.5616C59.9105 26.5996 60.3396 26.7015 60.7472 26.8641C61.1047 27.0041 61.1585 27.1279 61.0122 27.4767C60.9422 27.6429 60.8722 27.8092 60.7959 27.9767C60.7084 28.163 60.6221 28.2067 60.4209 28.163C60.0934 28.0917 59.7684 28.0042 59.4383 27.9429C59.029 27.8657 58.6069 27.8928 58.2108 28.0217C57.7232 28.178 57.302 28.5905 57.1857 29.033H58.6608C58.8796 29.033 58.9508 29.1043 58.9521 29.3193C58.9521 29.4555 58.9521 29.593 58.9521 29.7293C58.9521 29.9231 58.8696 30.0031 58.6745 30.0043H56.9607V30.4168H58.6495C58.8821 30.4168 58.9558 30.4906 58.9571 30.7218C58.9571 30.8581 58.9571 30.9956 58.9571 31.1319C58.9571 31.3106 58.8771 31.3819 58.6958 31.3894C58.2083 31.3894 57.7195 31.3894 57.232 31.3894C57.1982 31.3894 57.1645 31.3894 57.107 31.3969C57.277 31.8894 57.5407 32.2869 58.0245 32.4995C58.5845 32.7495 59.1621 32.7307 59.7446 32.597C59.9771 32.5432 60.2071 32.4807 60.4397 32.4294C60.4718 32.4165 60.5061 32.4102 60.5407 32.4109C60.5753 32.4116 60.6094 32.4193 60.641 32.4336C60.6725 32.4478 60.7009 32.4683 60.7243 32.4938C60.7477 32.5193 60.7657 32.5493 60.7772 32.5819C60.8834 32.8057 60.9834 33.0332 61.0722 33.2657C61.1409 33.4458 61.0722 33.5745 60.8784 33.6633C60.4873 33.8403 60.0718 33.9575 59.6458 34.0108C58.932 34.1139 58.2036 34.0165 57.542 33.7295C56.6119 33.3232 56.0569 32.592 55.7544 31.6469C55.6719 31.3906 55.6769 31.3894 55.4044 31.3894C55.2481 31.3894 55.0919 31.3894 54.9356 31.3894C54.9016 31.3945 54.8669 31.3915 54.8342 31.3807C54.8016 31.3699 54.7719 31.3517 54.7476 31.3273C54.7233 31.303 54.7051 31.2734 54.6943 31.2407C54.6835 31.2081 54.6805 31.1734 54.6856 31.1394C54.6856 30.9835 54.6856 30.8273 54.6856 30.6706C54.6813 30.6351 54.6854 30.5991 54.6973 30.5654C54.7092 30.5317 54.7288 30.5012 54.7544 30.4763C54.7801 30.4514 54.8111 30.4327 54.8451 30.4218C54.8791 30.4108 54.9152 30.4078 54.9506 30.4131C55.1506 30.4143 55.3406 30.4168 55.5469 30.4168Z" fill="#2BA75D"/>
</g>
<path d="M29.782 0V65.4545H15.9432V13.1357H15.5597L0.570312 22.532V10.2592L16.7741 0H29.782Z" fill="#2BA75D"/>
<defs>
<clipPath id="clip0_615_575">
<rect width="47.8264" height="45" fill="white" transform="translate(44 20)"/>
</clipPath>
</defs>
</svg>
