<svg width="115" height="66" viewBox="0 0 115 66" fill="none" xmlns="http://www.w3.org/2000/svg">
<g clip-path="url(#clip0_615_578)">
<path d="M114.964 43.854C114.378 44.5 114.089 45.3002 113.789 46.0968C113.218 47.6142 112.632 49.1266 112.05 50.6403C111.906 51.014 111.645 51.255 111.232 51.2152C111.071 51.2064 110.918 51.1395 110.803 51.0269C110.687 50.9144 110.617 50.7637 110.604 50.603C110.592 50.4109 110.625 50.2186 110.7 50.0414C111.173 48.7759 111.658 47.5105 112.138 46.2511C112.196 46.0993 112.24 45.9426 112.301 45.7618H71.2813C71.3367 45.9305 71.3777 46.08 71.4319 46.2246C71.9321 47.5503 72.4527 48.8579 72.9191 50.1896C72.9512 50.3208 72.955 50.4573 72.9303 50.5901C72.9055 50.7229 72.8528 50.8489 72.7757 50.9597C72.6552 51.1104 72.2936 51.2008 72.1056 51.1309C71.8708 51.0189 71.6876 50.8214 71.5934 50.5789C70.851 48.7097 70.1472 46.826 69.4108 44.9519C69.1927 44.3951 68.9288 43.8576 68.6877 43.3117V41.9559C69.3241 40.0951 70.8571 39.5937 72.5805 39.4575C73.3601 39.3974 74.144 39.4216 74.9185 39.5299C76.0706 39.6901 76.8179 40.5663 77.0083 41.7076C77.1372 42.4753 77.353 43.2285 77.5554 43.9818C77.5819 44.0818 77.747 44.1553 77.8615 44.2156C77.9206 44.2469 78.0098 44.2156 78.0845 44.2156H105.983C106.2 43.3719 106.465 42.538 106.617 41.6847C106.841 40.4723 107.727 39.8769 108.742 39.6359C110.248 39.2806 111.826 39.3993 113.262 39.9758C114.034 40.2843 114.575 40.8555 114.963 41.5799L114.964 43.854ZM107.485 44.2156C109.004 44.2156 110.48 44.2469 111.952 44.2035C112.732 44.1806 113.444 43.4527 113.519 42.7501C113.583 42.1174 113.124 41.5124 112.327 41.2412C111.248 40.8796 110.137 40.8796 109.026 41.0351C108.619 41.0905 108.316 41.3292 108.17 41.8076C108.387 41.8944 108.584 42.0149 108.795 42.0487C109.326 42.1391 109.865 42.1933 110.401 42.2596C110.962 42.3295 111.254 42.6308 111.201 43.0899C111.151 43.525 110.798 43.7938 110.278 43.7275C109.435 43.619 108.598 43.4744 107.706 43.337L107.485 44.2156ZM75.8814 43.2647C75.4488 43.3659 75.0595 43.4804 74.663 43.5443C74.2473 43.61 73.8279 43.6502 73.4072 43.6648C72.9336 43.6817 72.5997 43.378 72.5817 42.9562C72.5636 42.5343 72.8227 42.2813 73.312 42.215C73.9146 42.1318 74.534 42.0667 75.133 41.9354C75.5283 41.8486 75.5801 41.5738 75.2933 41.281C75.1769 41.1427 75.0215 41.0427 74.8474 40.9941C73.5711 40.8025 72.2984 40.7676 71.086 41.3147C70.5738 41.5461 70.2424 41.945 70.2123 42.5295C70.1629 43.3527 70.9354 44.124 71.8634 44.1408C72.8853 44.1601 73.9122 44.1408 74.9318 44.1529C75.3126 44.1529 75.6934 44.2083 76.1188 44.2421L75.8814 43.2647Z" fill="#5AE170"/>
<path d="M84.2899 34.4127C83.8813 34.4127 83.5053 34.4067 83.1305 34.4127C82.0458 34.4344 81.1757 33.3196 81.7879 32.2C82.1303 31.5628 82.6225 31.0185 83.2221 30.614C83.2983 30.5561 83.3622 30.4837 83.4102 30.401C83.4582 30.3182 83.4893 30.2268 83.5017 30.1319C83.6475 27.7216 84.6442 25.7366 86.4652 24.1627C86.9401 23.7517 87.3655 23.7276 87.6571 24.0663C87.9681 24.4278 87.8849 24.8713 87.4065 25.2714C86.7162 25.8334 86.1459 26.5284 85.7296 27.3151C85.3132 28.1019 85.0593 28.9643 84.9829 29.8511C84.9756 29.9234 84.9829 29.9957 84.9829 30.0921H98.6797C98.5483 28.1795 97.7481 26.6381 96.3248 25.4088C96.2561 25.3498 96.1825 25.2967 96.1162 25.2353C95.7764 24.9255 95.7125 24.4977 95.9584 24.1904C96.0251 24.1134 96.1065 24.0506 96.1978 24.0057C96.2892 23.9607 96.3886 23.9344 96.4902 23.9285C96.5919 23.9225 96.6937 23.937 96.7897 23.971C96.8857 24.005 96.9739 24.0579 97.0491 24.1265C97.3958 24.4161 97.7212 24.7303 98.0228 25.0666C99.2735 26.4525 100.022 28.2187 100.148 30.0813C100.164 30.175 100.2 30.2643 100.253 30.3435C100.306 30.4228 100.375 30.4902 100.455 30.5417C101.141 30.9319 101.683 31.534 101.999 32.2578C102.472 33.334 101.972 34.2391 100.794 34.3789C100.324 34.4344 99.8415 34.3886 99.3606 34.3886C99.7378 39.4371 95.451 42.7163 91.6089 42.5838C87.7499 42.462 83.9428 39.0647 84.2899 34.4127ZM85.7602 34.4404C85.7867 34.9767 85.7771 35.4684 85.8421 35.9505C86.229 38.8321 88.8683 41.2954 92.0886 41.099C95.463 40.8929 97.9035 38.2427 97.8951 34.9719C97.8951 34.5211 97.7432 34.4296 97.3238 34.4308C93.6685 34.4464 90.012 34.4392 86.3567 34.4392L85.7602 34.4404ZM100.501 32.8737C100.23 32.0505 99.551 31.5853 98.6929 31.5853C94.2515 31.5853 89.81 31.5853 85.3685 31.5853C85.0674 31.586 84.7669 31.6098 84.4695 31.6564C83.8138 31.7589 83.2546 32.2916 83.1305 32.8713L100.501 32.8737Z" fill="#5AE170"/>
<path d="M89.2962 24.3193C89.2962 23.7324 89.2962 23.1443 89.2962 22.5574C89.2962 22.225 89.3616 21.8959 89.4888 21.5889C89.616 21.2818 89.8024 21.0028 90.0374 20.7678C90.2724 20.5328 90.5514 20.3464 90.8585 20.2192C91.1656 20.092 91.4947 20.0265 91.827 20.0265C92.1594 20.0265 92.4885 20.092 92.7956 20.2192C93.1026 20.3464 93.3816 20.5328 93.6166 20.7678C93.8516 21.0028 94.038 21.2818 94.1652 21.5889C94.2924 21.8959 94.3579 22.225 94.3579 22.5574C94.3579 23.777 94.3579 24.9967 94.3579 26.2163C94.3579 26.7683 94.0711 27.1105 93.6227 27.1069C93.1744 27.1033 92.9165 26.7948 92.9165 26.2042C92.9165 25.0147 92.9274 23.8252 92.9165 22.6357C92.9057 21.8102 92.2115 21.2847 91.4932 21.5282C91.028 21.686 90.752 22.1078 90.7496 22.6996C90.7496 23.8746 90.7496 25.0485 90.7496 26.2235C90.7496 26.8044 90.4941 27.1105 90.0265 27.1081C89.5589 27.1057 89.3118 26.8008 89.3106 26.2151C89.2949 25.5836 89.2962 24.9521 89.2962 24.3193Z" fill="#5AE170"/>
<path d="M91.8258 64.9988C87.7893 64.9988 83.7524 64.9988 79.715 64.9988C78.0917 64.9988 76.5912 63.9141 76.1718 62.4776C76.0043 61.9027 76.1851 61.4712 76.6467 61.3423C77.0468 61.2302 77.3818 61.4917 77.571 62.0437C77.8518 62.856 78.4327 63.3308 79.2691 63.4827C79.5516 63.5281 79.8375 63.5482 80.1236 63.5429C87.9411 63.5429 95.7591 63.5462 103.577 63.5526C104.816 63.5526 105.69 63.0922 106.135 61.8979C106.196 61.7165 106.326 61.5661 106.496 61.4788C106.666 61.3915 106.864 61.3741 107.047 61.4303C107.439 61.5616 107.65 61.9654 107.516 62.4233C107.113 63.8008 106.129 64.5637 104.785 64.9012C104.447 64.9751 104.102 65.0078 103.756 64.9988C99.7772 65.002 95.8005 65.002 91.8258 64.9988Z" fill="#5AE170"/>
<path d="M102.488 55.8214C102.668 54.9272 102.786 54.0136 103.039 53.1423C103.424 51.8166 104.326 51.1851 105.703 51.2682C106.599 51.3225 107.483 51.5346 108.377 51.6406C109.071 51.7238 109.773 51.8166 110.469 51.7925C111.265 51.7636 111.96 51.913 112.527 52.4927C112.708 52.6659 112.847 52.8775 112.935 53.1117C113.023 53.3459 113.057 53.5969 113.036 53.8461C112.851 55.6201 112.389 57.3014 111.228 58.7138C109.836 60.4011 107.262 61.1242 105.254 60.3794C103.715 59.8069 102.97 58.5981 102.688 57.0519C102.616 56.6542 102.603 56.2468 102.568 55.8467L102.488 55.8214ZM106.006 52.7988C104.838 52.7711 104.537 52.9712 104.336 53.7376C104.078 54.7199 103.94 55.719 104.121 56.7301C104.316 57.822 104.742 58.7789 105.943 59.0645C107.374 59.3971 108.715 59.1453 109.8 58.1004C110.95 56.9976 111.339 55.549 111.459 54.0172C111.499 53.5183 111.123 53.3098 110.572 53.3327C109.858 53.3786 109.141 53.3616 108.43 53.2821C107.51 53.1616 106.606 52.9229 106.006 52.7988Z" fill="#5AE170"/>
<path d="M81.054 55.8575C80.9829 56.4505 80.96 56.9964 80.8467 57.5219C80.4116 59.5598 79.1595 60.5131 77.0866 60.6361C74.2195 60.806 72.0381 59.1959 71.1438 56.2974C70.9371 55.6066 70.7895 54.8994 70.7028 54.1836C70.5328 52.8651 71.7597 51.6888 73.0866 51.9154C73.9146 52.0564 74.6991 51.9323 75.4969 51.7684C76.1875 51.6262 76.8805 51.4803 77.5795 51.3972C79.2667 51.1947 80.4213 52.0649 80.7732 53.8003C80.9154 54.5005 80.966 55.2079 81.054 55.8575ZM79.6692 55.7226C79.609 55.2405 79.5656 54.6982 79.4692 54.1679C79.2282 52.8783 78.8244 52.6012 77.5409 52.8205C77.5108 52.8205 77.4831 52.835 77.4529 52.841C76.5394 53.0157 75.6319 53.2279 74.7112 53.3508C74.1821 53.4219 73.635 53.3508 73.095 53.3399C72.5804 53.3399 72.1514 53.6557 72.2333 54.0377C72.4189 54.8994 72.5647 55.7876 72.8901 56.5987C73.5759 58.3052 74.9185 59.1428 76.7527 59.1935C78.3086 59.2368 79.2896 58.433 79.5391 56.9036C79.5994 56.5348 79.6222 56.1588 79.6692 55.7274V55.7226Z" fill="#5AE170"/>
</g>
<path opacity="0.9" d="M0 53.9489V43.0504L27.326 0H36.7223V15.0852H31.1612L13.9347 42.3473V42.8587H52.7663V53.9489H0ZM31.4169 65.4545V50.625L31.6726 45.799V0H44.6484V65.4545H31.4169Z" fill="#5AE170"/>
<defs>
<clipPath id="clip0_615_578">
<rect width="46.2787" height="45" fill="white" transform="translate(68.6853 20)"/>
</clipPath>
</defs>
</svg>
