<svg width="113" height="67" viewBox="0 0 113 67" fill="none" xmlns="http://www.w3.org/2000/svg">
<g clip-path="url(#clip0_615_574)">
<path d="M102.967 38.0572C102.689 38.0749 102.482 38.0825 102.278 38.1014C102.147 38.1144 102.017 38.1342 101.889 38.1607C101.07 38.3056 100.293 38.6315 99.6162 39.1146C98.9391 39.5978 98.3784 40.226 97.975 40.9535C97.8791 41.1091 97.8282 41.2883 97.8282 41.4711C97.8282 41.6539 97.8791 41.8332 97.975 41.9888C98.5523 43.0224 99.4412 43.8473 100.515 44.3461C101.589 44.8448 102.792 44.9919 103.954 44.7664C105.656 44.4305 106.942 43.4862 107.813 41.9888C107.91 41.834 107.962 41.6547 107.962 41.4718C107.962 41.2888 107.91 41.1095 107.813 40.9548C106.702 39.0811 105.047 38.1456 102.967 38.0572ZM107.221 41.7186C106.853 42.3589 106.347 42.9092 105.74 43.3294C105.133 43.7496 104.44 44.0292 103.711 44.1477C103.443 44.197 103.168 44.2058 102.912 44.2311C101.001 44.1414 99.5381 43.3271 98.5558 41.687C98.5125 41.6237 98.4885 41.5492 98.487 41.4725C98.4854 41.3957 98.5062 41.3203 98.547 41.2552C99.3474 39.8904 100.524 39.0458 102.082 38.7819C103.085 38.612 104.115 38.7539 105.035 39.1883C105.954 39.6227 106.718 40.3287 107.223 41.211C107.274 41.2872 107.3 41.377 107.299 41.4685C107.298 41.5601 107.269 41.649 107.216 41.7236L107.221 41.7186Z" fill="#50BCF9"/>
<path d="M102.894 39.5003C102.505 39.5001 102.125 39.6151 101.801 39.8308C101.477 40.0465 101.225 40.3533 101.075 40.7125C100.926 41.0716 100.886 41.4669 100.961 41.8486C101.037 42.2302 101.223 42.5811 101.497 42.8568C101.772 43.1326 102.122 43.3209 102.503 43.3979C102.884 43.475 103.28 43.4373 103.64 43.2897C103.999 43.1421 104.307 42.8912 104.525 42.5687C104.742 42.2461 104.859 41.8664 104.861 41.4775C104.862 41.2182 104.813 40.9613 104.714 40.7214C104.616 40.4815 104.472 40.2634 104.289 40.0796C104.106 39.8959 103.889 39.7501 103.649 39.6506C103.41 39.5512 103.153 39.5001 102.894 39.5003ZM102.894 42.7918C102.632 42.7913 102.377 42.7132 102.159 42.5675C101.942 42.4217 101.773 42.2148 101.673 41.9729C101.573 41.731 101.548 41.465 101.599 41.2085C101.651 40.9519 101.777 40.7164 101.962 40.5317C102.147 40.3469 102.383 40.2213 102.64 40.1705C102.897 40.1198 103.163 40.1464 103.404 40.2468C103.646 40.3472 103.852 40.517 103.997 40.7347C104.143 40.9524 104.22 41.2082 104.22 41.4699C104.216 41.821 104.075 42.1566 103.826 42.404C103.577 42.6515 103.24 42.7908 102.889 42.7918H102.894Z" fill="#50BCF9"/>
<path d="M102.893 32.2972C101.499 32.2972 100.123 32.6157 98.8704 33.2283C97.6179 33.841 96.5219 34.7316 95.6661 35.8323L84.5203 24.6865C83.5999 23.7674 82.8399 23.7699 81.9182 24.6865L62.672 43.9391C62.5456 44.058 62.4267 44.1845 62.3159 44.3179C61.648 45.1752 62.1 46.4857 63.158 46.7268C63.8221 46.8783 64.336 46.6006 64.7993 46.1322C70.7931 40.1208 76.791 34.1131 82.7932 28.1093C82.9341 27.9332 83.0607 27.7462 83.1719 27.55C83.3992 27.8265 83.5065 27.9831 83.6378 28.1144C87.1443 31.6268 90.6517 35.1379 94.1599 38.6478C93.5791 40.4433 93.5677 42.3744 94.1271 44.1767C94.6864 45.979 95.7893 47.5642 97.2847 48.7153C97.005 49.0061 96.8489 49.3939 96.8491 49.7973C96.8449 52.7795 96.8449 55.762 96.8491 58.745C96.8491 61.4519 94.8694 63.4265 92.1587 63.4253H74.271C71.5615 63.4253 69.5819 61.4519 69.5819 58.7437C69.5819 55.8247 69.5819 52.9053 69.5819 49.9855C69.5907 49.7661 69.5673 49.5466 69.5124 49.334C69.4068 48.9878 69.1803 48.6911 68.8741 48.498C68.568 48.3049 68.2026 48.2284 67.8447 48.2823C67.4868 48.3361 67.1602 48.5169 66.9245 48.7916C66.6887 49.0662 66.5596 49.4165 66.5606 49.7784C66.5555 52.8397 66.5555 55.9009 66.5606 58.9622C66.5606 63.0718 69.9493 66.4541 74.0639 66.4541H83.201C86.1364 66.4541 89.0718 66.4541 92.006 66.4541C92.5412 66.458 93.0761 66.4251 93.6069 66.3556C97.0436 65.8683 99.8754 62.6198 99.8855 59.1591C99.894 56.1492 99.894 53.1389 99.8855 50.1281C101.145 50.5667 102.484 50.7253 103.811 50.5929C105.138 50.4604 106.42 50.0402 107.568 49.3614C108.715 48.6826 109.701 47.7616 110.456 46.6626C111.211 45.5637 111.718 44.3133 111.94 42.9985C112.162 41.6838 112.095 40.3364 111.743 39.0503C111.391 37.7642 110.762 36.5704 109.901 35.5522C109.041 34.5339 107.968 33.7157 106.758 33.1546C105.549 32.5935 104.231 32.3031 102.898 32.3035L102.893 32.2972ZM102.893 48.9918C101.404 48.9923 99.9491 48.5514 98.7111 47.7248C97.4732 46.8982 96.5081 45.723 95.9381 44.3479C95.368 42.9728 95.2185 41.4596 95.5085 39.9995C95.7986 38.5395 96.515 37.1983 97.5673 36.1454C98.6196 35.0926 99.9605 34.3754 101.42 34.0847C102.88 33.794 104.394 33.9427 105.769 34.512C107.144 35.0814 108.32 36.0458 109.147 37.2834C109.975 38.5209 110.416 39.976 110.416 41.4645C110.414 43.4594 109.621 45.3719 108.21 46.7828C106.8 48.1936 104.888 48.9876 102.893 48.9906V48.9918Z" fill="#50BCF9"/>
</g>
<path d="M0.639205 66.3494V56.3778L23.9382 34.8047C25.9197 32.8871 27.5817 31.1612 28.924 29.6271C30.2876 28.093 31.321 26.5909 32.0241 25.1207C32.7273 23.6293 33.0788 22.0206 33.0788 20.2947C33.0788 18.3771 32.642 16.7259 31.7685 15.3409C30.8949 13.9347 29.7017 12.8587 28.1889 12.1129C26.6761 11.3459 24.9609 10.9624 23.0433 10.9624C21.0405 10.9624 19.2933 11.3672 17.8018 12.1768C16.3104 12.9865 15.1598 14.1477 14.3501 15.6605C13.5405 17.1733 13.1357 18.9737 13.1357 21.0618H0C0 16.7791 0.96946 13.0611 2.90838 9.90767C4.8473 6.75426 7.56392 4.31463 11.0582 2.58878C14.5526 0.862926 18.5795 0 23.1392 0C27.8267 0 31.907 0.830966 35.38 2.4929C38.8743 4.13352 41.5909 6.41335 43.5298 9.33239C45.4688 12.2514 46.4382 15.5966 46.4382 19.3679C46.4382 21.8395 45.9482 24.2791 44.968 26.6868C44.0092 29.0945 42.294 31.7685 39.8224 34.7088C37.3509 37.6278 33.8672 41.1328 29.3714 45.2237L19.8153 54.5881V55.0355H47.3011V66.3494H0.639205Z" fill="#50BCF9"/>
<defs>
<clipPath id="clip0_615_574">
<rect width="50.06" height="42.4569" fill="white" transform="translate(62 24)"/>
</clipPath>
</defs>
</svg>
