<svg width="110" height="68" viewBox="0 0 110 68" fill="none" xmlns="http://www.w3.org/2000/svg">
<g clip-path="url(#clip0_615_573)">
<path d="M109.198 45.2345C108.552 46.6578 107.401 47.7004 106.436 48.88C104.587 51.1421 102.703 53.376 100.813 55.603C99.5663 57.0708 97.9356 57.858 96.0461 58.1122C95.4952 58.1763 94.9407 58.2041 94.3862 58.1954C90.8203 58.2024 87.2544 58.2411 83.6908 58.1778C82.3542 58.1544 81.5108 58.8502 80.7048 59.7229C80.6531 59.8187 80.6401 59.9307 80.6685 60.0357C80.8501 61.0596 80.5959 61.9335 79.8403 62.6691C78.5001 63.973 77.1764 65.2944 75.841 66.6052C75.3033 67.1335 74.8605 67.13 74.3263 66.5923C71.1243 63.3677 67.9224 60.1415 64.7204 56.9138C64.1991 56.3878 64.2015 55.9333 64.7298 55.4015C66.048 54.0738 67.3683 52.7493 68.6904 51.4279C69.2656 50.8516 69.9474 50.5294 70.7721 50.5903C71.0439 50.6103 71.1821 50.5154 71.3215 50.2846C73.108 47.3103 75.7648 45.6597 79.1702 45.1443C81.1991 44.8242 83.2765 45.0419 85.195 45.7757C85.4016 45.8432 85.6185 45.8737 85.8358 45.8659C88.7144 45.8714 91.593 45.8714 94.4717 45.8659C96.2628 45.8659 96.6494 46.0065 97.9579 47.1287C98.2098 46.8886 98.4675 46.6531 98.7111 46.4048C100.202 44.8788 101.691 43.3508 103.178 41.8209C105.065 39.8763 107.973 40.3929 109.087 42.8752C109.12 42.9338 109.16 42.9891 109.204 43.0404L109.198 45.2345ZM79.4561 58.4144C79.6458 58.2469 79.7513 58.1708 79.838 58.0759C80.9391 56.8552 82.3085 56.3843 83.9474 56.4066C87.5554 56.4558 91.1647 56.4206 94.7739 56.423C96.8052 56.423 98.4979 55.7201 99.7819 54.0988C100.507 53.1828 101.277 52.3018 102.026 51.4045C103.714 49.3881 105.4 47.3712 107.086 45.354C107.761 44.5422 107.691 43.4972 106.951 42.8436C106.231 42.2086 105.194 42.2824 104.476 43.0216C102.652 44.8959 100.831 46.7726 99.0122 48.6516C98.8668 48.8019 98.7785 48.9983 98.7627 49.2069C98.7627 51.367 97.2503 52.918 95.082 52.9297C92.8176 52.9414 90.5532 52.9297 88.2876 52.9297C88.1294 52.9315 87.9717 52.9114 87.819 52.87C87.6259 52.821 87.4569 52.7043 87.3427 52.541C87.2285 52.3778 87.1768 52.179 87.197 51.9809C87.1978 51.7885 87.2674 51.6028 87.393 51.4572C87.5186 51.3116 87.6922 51.2156 87.8823 51.1866C88.0683 51.1508 88.2576 51.1351 88.4469 51.1398C90.7266 51.1398 93.005 51.1468 95.2846 51.1304C95.6982 51.1322 96.0978 50.9806 96.4061 50.705C96.7144 50.4293 96.9096 50.0492 96.954 49.638C97.0188 49.2301 96.9324 48.8127 96.7111 48.4641C96.4898 48.1155 96.1487 47.8597 95.7521 47.7449C95.4839 47.6795 95.2079 47.6519 94.932 47.6629C91.8195 47.6629 88.7081 47.6629 85.5956 47.6547C85.3343 47.6652 85.0734 47.6254 84.8271 47.5376C83.07 46.7995 81.2425 46.625 79.3752 46.905C76.5801 47.3232 74.3802 48.6774 72.8854 51.1222C72.705 51.4162 72.7343 51.5802 72.9768 51.8251C75.0018 53.829 77.0175 55.8423 79.0238 57.865C79.1784 58.0396 79.3228 58.2231 79.4561 58.4144ZM66.4448 56.1723L75.3232 64.8621C76.3705 63.7562 77.4822 62.5778 78.6032 61.4051C79.1011 60.8827 79.107 60.4492 78.5927 59.9244C78.2143 59.539 77.8301 59.1595 77.4482 58.7776C75.4247 56.7549 73.4008 54.7326 71.3766 52.7107C70.908 52.2421 70.4535 52.2011 70.0341 52.6123C68.8416 53.7767 67.6701 54.9552 66.4436 56.1723H66.4448Z" fill="#E26A6A"/>
<path d="M90.4993 41.3254C89.2303 41.3223 87.9743 41.0693 86.8032 40.5807C85.632 40.0921 84.5686 39.3776 83.6736 38.478C82.7786 37.5783 82.0697 36.5112 81.5872 35.3374C81.1047 34.1637 80.8583 32.9065 80.8618 31.6375C80.877 26.2371 85.2149 21.9754 90.6727 22C95.8997 22.0234 100.195 26.3988 100.179 31.6797C100.161 37.025 95.8235 41.3488 90.4993 41.3254ZM90.5309 39.5459C92.6205 39.5447 94.6243 38.7145 96.1026 37.2376C97.5808 35.7607 98.4128 33.7576 98.4159 31.668C98.4141 29.5707 97.5806 27.5599 96.0983 26.0762C94.616 24.5926 92.6059 23.7574 90.5086 23.7537C88.4114 23.7633 86.4036 24.6042 84.9255 26.092C83.4474 27.5797 82.6196 29.593 82.6236 31.6902C82.6295 36.0281 86.179 39.5506 90.5321 39.5471L90.5309 39.5459Z" fill="#E26A6A"/>
<path d="M84.4089 51.0156C84.5255 51.0131 84.6414 51.0348 84.7492 51.0795C84.8569 51.1241 84.9542 51.1907 85.0348 51.275C85.1155 51.3593 85.1777 51.4594 85.2176 51.569C85.2575 51.6786 85.2741 51.7954 85.2664 51.9117C85.2661 52.0247 85.2436 52.1364 85.2001 52.2406C85.1566 52.3448 85.093 52.4394 85.0129 52.5191C84.9329 52.5987 84.8379 52.6618 84.7335 52.7047C84.629 52.7476 84.5172 52.7696 84.4043 52.7692C84.1695 52.7677 83.9447 52.6743 83.778 52.509C83.6113 52.3436 83.5161 52.1195 83.5128 51.8848C83.5122 51.7682 83.5352 51.6527 83.5804 51.5452C83.6256 51.4378 83.6921 51.3405 83.7757 51.2593C83.8594 51.1782 83.9587 51.1147 84.0675 51.0728C84.1763 51.031 84.2924 51.0115 84.4089 51.0156Z" fill="#E26A6A"/>
<path d="M88.038 31.6539V31.2673H87.5319C87.307 31.2673 87.2414 31.2005 87.2403 30.9721C87.2403 30.8444 87.2403 30.7156 87.2403 30.5879C87.2358 30.5567 87.2385 30.5249 87.2482 30.4949C87.2579 30.4649 87.2744 30.4375 87.2963 30.4149C87.3183 30.3923 87.3451 30.375 87.3748 30.3644C87.4045 30.3537 87.4362 30.35 87.4675 30.3536C87.669 30.3536 87.8705 30.3477 88.0708 30.3536C88.0903 30.3573 88.1104 30.3569 88.1298 30.3526C88.1491 30.3483 88.1675 30.3401 88.1836 30.3285C88.1997 30.3169 88.2132 30.3021 88.2235 30.2851C88.2337 30.268 88.2403 30.2491 88.243 30.2294C88.4879 29.4773 88.9225 28.8659 89.6171 28.4664C90.2562 28.1101 90.9902 27.9615 91.7175 28.0412C92.1272 28.0767 92.5293 28.1723 92.9112 28.3246C93.2463 28.4558 93.2966 28.5718 93.1596 28.8987C93.094 29.0545 93.0284 29.2103 92.9569 29.3672C92.8749 29.5418 92.7941 29.5828 92.6055 29.5418C92.2986 29.475 91.994 29.393 91.6847 29.3356C91.3011 29.2633 90.9055 29.2886 90.5344 29.4094C90.0775 29.5558 89.6827 29.9424 89.5738 30.3571H90.9561C91.1611 30.3571 91.2279 30.4239 91.229 30.6254C91.229 30.7531 91.229 30.8819 91.229 31.0096C91.229 31.1912 91.1517 31.2662 90.969 31.2673H89.3582V31.6539H90.9408C91.1587 31.6539 91.2279 31.723 91.229 31.9397C91.229 32.0674 91.229 32.1963 91.229 32.324C91.229 32.4915 91.1541 32.5583 90.9842 32.5653C90.5273 32.5653 90.0693 32.5653 89.6124 32.5653C89.5808 32.5653 89.5492 32.5653 89.4953 32.5723C89.6546 33.0339 89.9018 33.4064 90.3551 33.6055C90.8799 33.8398 91.4211 33.8222 91.967 33.6969C92.1849 33.6465 92.4005 33.588 92.6184 33.5399C92.6484 33.5278 92.6807 33.5219 92.7131 33.5226C92.7455 33.5232 92.7775 33.5305 92.807 33.5438C92.8366 33.5572 92.8632 33.5764 92.8851 33.6003C92.907 33.6242 92.9239 33.6523 92.9346 33.6828C93.0342 33.8925 93.1279 34.1057 93.2111 34.3236C93.2755 34.4923 93.2111 34.613 93.0295 34.6961C92.6631 34.8621 92.2737 34.9718 91.8745 35.0218C91.2056 35.1185 90.523 35.0272 89.903 34.7582C89.0314 34.3775 88.5113 33.6922 88.2278 32.8066C88.1505 32.5665 88.1551 32.5653 87.8998 32.5653C87.7533 32.5653 87.6069 32.5653 87.4605 32.5653C87.4286 32.57 87.3961 32.5672 87.3655 32.5571C87.3349 32.547 87.3071 32.5299 87.2843 32.5071C87.2615 32.4844 87.2444 32.4566 87.2343 32.426C87.2242 32.3954 87.2214 32.3629 87.2262 32.331C87.2262 32.185 87.2262 32.0385 87.2262 31.8917C87.2222 31.8584 87.226 31.8247 87.2372 31.7931C87.2484 31.7616 87.2667 31.733 87.2907 31.7096C87.3147 31.6863 87.3438 31.6688 87.3757 31.6585C87.4076 31.6483 87.4414 31.6455 87.4745 31.6504C87.6667 31.6516 87.8447 31.6539 88.038 31.6539Z" fill="#E26A6A"/>
</g>
<path d="M24.8331 67.2443C20.0604 67.2443 15.8097 66.424 12.081 64.7834C8.37358 63.1215 5.44389 60.8416 3.2919 57.9439C1.16122 55.0249 0.0639204 51.6584 0 47.8445H13.9347C14.0199 49.4425 14.5419 50.8487 15.5007 52.0632C16.4808 53.2564 17.7805 54.1832 19.3999 54.8438C21.0192 55.5043 22.8409 55.8345 24.8651 55.8345C26.9744 55.8345 28.8388 55.4617 30.4581 54.7159C32.0774 53.9702 33.3452 52.9368 34.2614 51.6158C35.1776 50.2947 35.6357 48.7713 35.6357 47.0455C35.6357 45.2983 35.1456 43.7536 34.1655 42.4112C33.2067 41.0476 31.8217 39.9822 30.0107 39.2152C28.2209 38.4482 26.0902 38.0646 23.6186 38.0646H17.5142V27.9013H23.6186C25.7067 27.9013 27.5497 27.5391 29.1477 26.8146C30.767 26.0902 32.0242 25.0888 32.919 23.8104C33.8139 22.5107 34.2614 20.9979 34.2614 19.272C34.2614 17.6314 33.8672 16.1932 33.0788 14.9574C32.3118 13.7003 31.2251 12.7202 29.8189 12.017C28.434 11.3139 26.8146 10.9624 24.9609 10.9624C23.0859 10.9624 21.3707 11.3033 19.8153 11.9851C18.2599 12.6456 17.0135 13.5938 16.076 14.8295C15.1385 16.0653 14.6378 17.5142 14.5739 19.1761H1.31037C1.37429 15.4048 2.45028 12.081 4.53835 9.20455C6.62642 6.32813 9.43892 4.08026 12.9759 2.46094C16.5341 0.820312 20.5504 0 25.0249 0C29.5419 0 33.4943 0.820312 36.8821 2.46094C40.2699 4.10156 42.9013 6.31747 44.7763 9.10866C46.6726 11.8786 47.6101 14.9893 47.5888 18.4411C47.6101 22.1058 46.4702 25.1634 44.169 27.6136C41.8892 30.0639 38.9169 31.6193 35.2521 32.2798V32.7912C40.0675 33.4091 43.7322 35.0817 46.2465 37.8089C48.782 40.5149 50.0391 43.9027 50.0178 47.9723C50.0391 51.701 48.9631 55.0142 46.7898 57.9119C44.6378 60.8097 41.6655 63.0895 37.8729 64.7514C34.0803 66.4134 29.7337 67.2443 24.8331 67.2443Z" fill="#E26A6A"/>
<defs>
<clipPath id="clip0_615_573">
<rect width="44.8629" height="45" fill="white" transform="translate(64.3338 22)"/>
</clipPath>
</defs>
</svg>
